PathFileType	4	(X/Y/Z)	..\data\2014004\dynamic\2014004_C5_01.trc
DataRate	CameraRate	NumFrames	NumMarkers	Units	OrigDataRate	OrigDataStartFrame	OrigNumFrames
100.000000	100.000000	4	52	mm	100.000000	17	143
Frame#	Time	L_IAS			L_IPS			R_IPS			R_IAS			L_FTC			L_FLE			L_FME			L_FAX			L_TTC			L_FAL			L_TAM			L_FCC			L_FM1			L_FM2			L_FM5			R_FTC			R_FLE			R_FME			R_FAX			R_TTC			R_FAL			R_TAM			R_FCC			R_FM1			R_FM2			R_FM5			CV7			TV10			SXS			SJN			L_SIA			L_SRS			L_SAA			L_SAE			L_HLE			L_HME			L_UOA			L_RSP			L_UHE			L_HM2			L_HM5			R_SIA			R_SRS			R_SAA			R_SAE			R_HLE			R_HME			R_UOA			R_RSP			R_UHE			R_HM2			R_HM5			
		X1	Y1	Z1	X2	Y2	Z2	X3	Y3	Z3	X4	Y4	Z4	X5	Y5	Z5	X6	Y6	Z6	X7	Y7	Z7	X8	Y8	Z8	X9	Y9	Z9	X10	Y10	Z10	X11	Y11	Z11	X12	Y12	Z12	X13	Y13	Z13	X14	Y14	Z14	X15	Y15	Z15	X16	Y16	Z16	X17	Y17	Z17	X18	Y18	Z18	X19	Y19	Z19	X20	Y20	Z20	X21	Y21	Z21	X22	Y22	Z22	X23	Y23	Z23	X24	Y24	Z24	X25	Y25	Z25	X26	Y26	Z26	X27	Y27	Z27	X28	Y28	Z28	X29	Y29	Z29	X30	Y30	Z30	X31	Y31	Z31	X32	Y32	Z32	X33	Y33	Z33	X34	Y34	Z34	X35	Y35	Z35	X36	Y36	Z36	X37	Y37	Z37	X38	Y38	Z38	X39	Y39	Z39	X40	Y40	Z40	X41	Y41	Z41	X42	Y42	Z42	X43	Y43	Z43	X44	Y44	Z44	X45	Y45	Z45	X46	Y46	Z46	X47	Y47	Z47	X48	Y48	Z48	X49	Y49	Z49	X50	Y50	Z50	X51	Y51	Z51	X52	Y52	Z52	

18	0.17	92.13768768310548	931.9951171875002	-310.5201416015626	-103.6157455444336	964.7405395507815	-236.8473205566407	-103.5265274047852	964.7688598632815	-143.4817199707032	101.3142776489258	952.5894165039065	-77.81209564208986	-2.203550100326539	869.7851562500002	-377.5116577148438	-33.37450027465821	458.1622924804689	-352.3586425781251	6.100831031799318	445.5093383789064	-228.782211303711	-81.03739166259767	421.0415344238282	-358.2437438964844	-35.13064575195313	360.1084594726563	-301.0657653808594	-370.7289123535157	210.6399230957032	-306.9103088378907	-331.5544738769532	200.3678588867188	-218.3331909179688	-414.4358520507814	235.3818511962891	-244.7752227783204	-330.2918395996094	60.01294708251955	-218.8266601562501	-325.0603942871094	64.34394836425783	-273.1841735839844	-358.5312194824219	73.13164520263673	-319.3565673828126	54.58950805664064	877.4086914062502	-12.28571605682373	151.8592224121094	477.2391662597657	-54.92784500122072	178.6156158447266	489.4495544433595	-177.7047729492188	151.3631439208985	424.2377319335939	-54.32009506225587	215.9231262207032	424.5834350585939	-104.9052810668946	144.6652069091797	62.80115890502931	-99.86291503906253	152.3346099853516	90.25082397460939	-196.2516021728516	85.77219390869142	27.02352714538575	-155.3472290039063	293.2754211425782	24.34948158264161	-188.3436584472657	286.7284240722657	42.09120178222657	-131.9468383789063	259.7418518066407	22.23054122924805	-78.12041473388673	-44.95444488525391	1452.323364257813	-191.3248596191407	-126.1370086669922	1228.280517578125	-202.5027923583985	123.495719909668	1179.300537109375	-196.7125396728516	78.32183837890626	1365.944702148438	-187.0865631103516	-118.7645111083985	1263.47509765625	-323.0115051269532	-93.94615173339845	1403.954223632813	-277.2844543457032	-46.4358024597168	1408.984375	-358.1194152832032	23.33202362060547	1414.767700195313	-377.8910827636719	0.121746301651001	1109.450561523438	-491.7091064453126	-31.29174995422364	1091.613525390625	-411.3280639648439	-37.82051467895509	1076.995239257813	-466.4525451660157	207.5547027587891	932.2290649414065	-448.2651977539064	146.3677825927735	902.6199951171877	-486.9097900390626	268.7141113281251	877.473815917969	-462.030487060547	183.0391693115235	819.2156372070315	-479.175262451172	-129.1139373779297	1243.840698242188	-83.45980834960939	-94.49691009521486	1388.005737304688	-108.6947402954102	-40.69578933715821	1397.170532226563	-25.18513107299805	20.4602222442627	1395.347778320313	-4.564443111419679	-117.2008361816407	1098.296752929688	68.92314910888673	-132.3421630859375	1092.32421875	-19.37931442260743	-159.1031799316407	1093.501831054688	28.46231269836426	-73.40823364257814	829.226745605469	63.8933792114258	-141.9931182861328	849.9041137695315	97.81460571289065	-81.77339172363283	734.1182861328126	82.16176605224611	-178.8810272216797	776.508972167969	92.33766937255861	
19	0.18	107.5315704345703	934.268249511719	-309.3316040039063	-87.81614685058595	966.8720703125002	-236.1145782470704	-87.88045501708986	967.7459716796877	-142.752197265625	117.4018936157227	954.8581542968752	-76.86892700195314	14.97079849243164	871.2973632812502	-376.5769958496094	-1.781373858451844	458.9150390625001	-353.8186950683594	38.61678314208985	445.5254211425782	-230.3105773925782	-49.23438644409181	422.5893859863282	-359.4855346679688	-3.359125375747682	361.0011901855469	-303.0897521972657	-341.9334411621094	217.2657623291016	-307.0204772949219	-301.7353515625001	205.2506713867188	-218.9196777343751	-385.1151733398439	241.1546936035157	-243.9052429199219	-301.4739990234376	64.37252807617189	-223.3605194091797	-297.0134582519532	69.93124389648439	-277.3309020996094	-330.5309753417969	80.49832916259767	-322.5911865234376	69.7129364013672	879.7608032226565	-11.48393440246582	159.8141632080078	477.2848510742189	-54.75257110595705	185.5392150878907	488.570281982422	-177.8658294677735	158.1530151367188	424.1843566894532	-54.21529388427736	222.6322174072266	423.3504028320314	-104.9525222778321	145.0544586181641	63.07910919189455	-100.0260009765625	152.6487426757813	90.45975494384767	-196.3430175781251	86.06800079345705	27.27514457702637	-155.2739562988282	293.5608825683594	23.83919906616211	-188.6724243164063	287.6175537109376	41.88846588134766	-131.7003021240235	260.0509033203126	22.38261222839356	-77.33283996582033	-27.8738079071045	1454.813842773438	-190.465805053711	-109.5033798217774	1231.073608398438	-201.3636627197266	139.9371948242188	1181.43603515625	-196.5811004638672	95.16607666015626	1368.31787109375	-186.6913146972657	-102.5856475830078	1266.340209960938	-321.7796325683594	-77.11262512207033	1406.722778320313	-276.3114929199219	-29.79079818725587	1411.644653320313	-357.2057189941407	39.88906860351563	1417.087524414063	-377.2405395507813	13.52591419219971	1111.9326171875	-490.8844299316407	-18.51562881469727	1094.936279296875	-410.5969543457032	-25.27999877929688	1080.686401367188	-465.8018798828126	214.7261505126954	927.2810058593752	-447.5705566406251	152.7470855712891	900.2630004882815	-486.9277343750001	273.8768310546876	870.1123046875002	-461.0570068359376	186.0462799072266	815.5689697265627	-479.4856262207032	-111.5426483154297	1246.360473632813	-81.75045776367189	-77.30362701416017	1390.695556640625	-107.5735092163086	-23.08907508850098	1399.669311523438	-24.17480468750001	38.34003448486329	1397.807495117188	-4.019754886627198	-96.00153350830081	1099.073486328125	69.89333343505861	-111.6002273559571	1093.0869140625	-18.38553619384766	-138.6124877929688	1093.537475585938	29.63386344909669	-45.22173690795899	831.080505371094	62.7677688598633	-114.0482254028321	849.6942138671877	97.12989807128909	-50.35540771484376	736.0940551757814	80.55328369140626	-148.866455078125	775.2586669921877	91.20222473144533	
20	0.19	122.7150344848633	936.5659179687502	-308.3329162597657	-72.21612548828126	969.0888671875002	-235.2167205810547	-72.32046508789064	970.757263183594	-141.9166717529297	133.3164672851563	956.9810791015627	-76.05967712402345	31.76176834106446	873.0095825195315	-375.6564331054688	29.59153175354005	460.4929504394532	-355.1188049316407	70.76160430908205	446.6217346191407	-231.6156921386719	-17.57049179077149	424.7745056152345	-360.4893798828126	28.71369934082032	362.6542358398438	-304.8904418945313	-311.6340942382813	222.2542724609376	-307.0236206054688	-270.3610534667969	208.879379272461	-219.3835601806641	-354.6268310546876	244.5661010742188	-242.965072631836	-269.0951232910157	67.89858245849611	-227.9310913085938	-265.4583129882813	74.91932678222658	-281.6091308593751	-299.2747497558594	86.7573928833008	-325.9461975097657	84.66338348388673	882.0342407226565	-10.71736431121826	166.730224609375	477.2473754882814	-54.63718032836915	191.5245513916016	487.598358154297	-178.1305236816407	163.9201812744141	424.0438842773439	-54.16176605224611	228.3894042968751	422.1215209960939	-104.978500366211	145.3951721191407	63.34950637817384	-100.1660461425782	152.8885803222657	90.70325469970705	-196.361801147461	86.44795989990236	27.47860717773438	-155.2621154785157	293.8176269531251	23.75829887390137	-188.9236450195313	288.3930053710938	41.94557189941407	-131.5093383789063	260.3428344726563	22.69377517700196	-76.66732025146486	-10.93617820739746	1457.312622070313	-189.7944488525391	-93.01233673095705	1233.87158203125	-200.2594909667969	156.2220458984375	1183.589477539063	-196.5897064208985	111.8592376708985	1370.699462890625	-186.4690093994141	-86.62631988525392	1269.131713867188	-320.5192871093751	-60.4520835876465	1409.442626953125	-275.4547729492188	-13.38908100128174	1414.218627929688	-356.4282836914063	56.151912689209	1419.3681640625	-376.8183593750001	26.66986656188966	1114.321044921875	-490.041473388672	-6.00511693954468	1098.186157226563	-409.9033203125001	-12.95141315460205	1084.31982421875	-465.1243896484376	221.188705444336	922.3516845703127	-446.8186340332032	158.5855560302735	898.0130615234377	-486.9874572753907	278.2177124023438	862.864440917969	-459.9038391113282	188.4816131591797	812.1148681640627	-479.8454895019532	-94.12732696533205	1248.962768554688	-80.13402557373048	-60.31742095947267	1393.474365234375	-106.5999526977539	-5.613915443420411	1402.262329101563	-23.33736610412598	56.07073974609376	1400.368530273438	-3.66538691520691	-74.80374908447267	1100.022216796875	70.94686126708986	-90.98398590087892	1093.96142578125	-17.27333450317383	-118.1145935058594	1093.62109375	30.96485137939454	-16.55387878417969	833.3508300781252	61.52862930297853	-85.55350494384767	849.7799072265627	96.44747161865237	-18.24575805664063	738.6252441406251	78.80049896240236	-118.1427688598633	774.2378540039065	90.04235076904298	
21	0.2	137.7594299316407	938.884948730469	-307.4983215332032	-56.76195907592775	971.3874511718752	-234.201889038086	-56.7811737060547	973.7713012695315	-141.0094146728516	149.0730285644532	958.9541625976565	-75.38014221191408	48.22300720214845	874.9213867187502	-374.7658081054688	60.57375335693361	462.8854370117189	-356.2457885742188	102.4148788452149	448.8023376464845	-232.7126617431641	13.78661251068116	427.5508117675782	-361.2643432617188	60.95432662963869	365.0487060546876	-306.5074462890626	-279.9849853515626	225.3978424072266	-306.9736022949219	-237.5946044921876	211.1040344238282	-219.7701721191407	-323.0995178222657	245.5272827148438	-242.0420227050782	-233.4912109375001	70.42351531982423	-232.3774566650391	-230.7237243652344	79.0250930786133	-285.8544311523438	-265.0641784667969	91.59004211425783	-329.2859191894532	99.48487854003909	884.2093505859377	-9.994937896728517	172.7413787841797	477.1682434082032	-54.57578277587892	196.7666168212891	486.619598388672	-178.4593200683594	168.8141479492188	423.8605957031251	-54.15418243408205	233.3296508789063	420.9342041015626	-104.9869155883789	145.6891174316407	63.58886337280275	-100.293930053711	153.086166381836	90.9453582763672	-196.3382873535157	86.85811614990236	27.65625000000001	-155.3172607421875	294.0554199218751	23.93907356262207	-189.1045837402344	289.0499877929688	42.11607360839844	-131.3830108642578	260.6038818359376	23.03898620605469	-76.13950347900392	5.857044219970704	1459.78759765625	-189.2919921875	-76.64447021484376	1236.62890625	-199.2014617919922	172.3758239746094	1185.7568359375	-196.7115173339844	128.4011383056641	1373.066162109375	-186.3878479003907	-70.84935760498048	1271.825561523438	-319.2480773925782	-43.95222854614259	1412.080322265625	-274.7065124511719	2.79341721534729	1416.692626953125	-355.7686767578126	72.14893341064455	1421.598999023438	-376.5994567871094	39.55506896972657	1116.617431640625	-489.1663818359376	6.268310070037844	1101.362548828125	-409.2195129394532	-0.8244042396545412	1087.885620117188	-464.3943786621095	226.9833984375001	917.5103759765627	-446.0183715820314	163.9227142333985	895.914978027344	-487.0758056640626	281.7832336425782	855.8057250976565	-458.6047363281251	190.4026794433594	808.9119262695315	-480.2612915039064	-76.88033294677736	1251.60498046875	-78.62435150146486	-43.5323829650879	1396.28271484375	-105.7761840820313	11.70392227172852	1404.902099609375	-22.66790199279786	73.60671997070314	1402.998657226563	-3.482038021087647	-53.65232086181642	1101.11181640625	72.07740020751955	-70.51868438720705	1094.910888671875	-16.0517807006836	-97.63090515136722	1093.72412109375	32.44440841674805	12.51200294494629	836.0512695312502	60.19488525390626	-56.57555389404298	850.1804809570315	95.76999664306642	14.44838619232178	741.7457885742189	76.93448638916017	-86.76364135742189	773.490173339844	88.87396240234376	
